# xmcd
#
# Track frame offsets:
#	150
#	22744
#	41032
#	60751
#	83750
#	107625
#	129655
#	147896
#	165348
#	182203
#	195447
#	219668
#
# Disc length: 3118 seconds
#
# Revision: 0
# Processed by: cddbd v1.5.2PL0 Copyright (c) Steve Scherf et al.
# Submitted via: FairStars CD Ripper 1.80
#
DISCID=960c2c0c
DTITLE=Lighnin' Hopkins - Bluesville story 1960-1962 Last Night Blues
DYEAR=2013
DGENRE=Blues
TTITLE0=Rocky Mountain Blues
TTITLE1=Got To Move Your Baby
TTITLE2=So Sorry To Leave You
TTITLE3=Take A Trip With Me
TTITLE4=Last Night Blues
TTITLE5=Lightnin's Stroke
TTITLE6=Hard To Love A Woman
TTITLE7=Conversation Blues
TTITLE8=Baby, Don't You Tear My Clothes
TTITLE9=Worried Life Blues
TTITLE10=Happy Blues For John Glenn
TTITLE11=Good Morning Little Schoolgirl
EXTD=
EXTT0=
EXTT1=
EXTT2=
EXTT3=
EXTT4=
EXTT5=
EXTT6=
EXTT7=
EXTT8=
EXTT9=
EXTT10=
EXTT11=
PLAYORDER=
